<?xml version="1.0" encoding="UTF-8"?>
<svg id="Layer_1" data-name="Layer 1" xmlns="http://www.w3.org/2000/svg" xmlns:xlink="http://www.w3.org/1999/xlink" viewBox="0 0 3510.34 869.43">
  <defs>
    <style>
      .cls-1 {
        fill: url(#linear-gradient-2);
      }

      .cls-2 {
        fill: url(#linear-gradient-4);
      }

      .cls-3 {
        fill: url(#linear-gradient-3);
      }

      .cls-4 {
        fill: url(#linear-gradient);
      }
    </style>
    <linearGradient id="linear-gradient" x1="731.55" y1="434.72" x2="3460.41" y2="434.72" gradientUnits="userSpaceOnUse">
      <stop offset="0" stop-color="#0ba3b6"/>
      <stop offset=".09" stop-color="#13a7be"/>
      <stop offset=".24" stop-color="#29b3d6"/>
      <stop offset=".36" stop-color="#40bfef"/>
      <stop offset=".8" stop-color="#898ffa"/>
    </linearGradient>
    <linearGradient id="linear-gradient-2" x1="113.95" y1="-307.39" x2="372.7" y2="140.78" gradientTransform="translate(0 190.79) scale(1 -1)" gradientUnits="userSpaceOnUse">
      <stop offset="0" stop-color="#f5370e"/>
      <stop offset=".2" stop-color="#eb3c15"/>
      <stop offset=".51" stop-color="#886759"/>
      <stop offset=".75" stop-color="#40878b"/>
      <stop offset=".86" stop-color="#0ba3b6"/>
    </linearGradient>
    <linearGradient id="linear-gradient-3" x1="139.29" y1="-369.59" x2="305.53" y2="-81.66" gradientTransform="translate(0 190.79) scale(1 -1)" gradientUnits="userSpaceOnUse">
      <stop offset="0" stop-color="#1b113d"/>
      <stop offset=".69" stop-color="#46758f"/>
      <stop offset="1" stop-color="#599fb1"/>
    </linearGradient>
    <linearGradient id="linear-gradient-4" x1="494.81" y1="-179.05" x2="224.92" y2="-646.51" gradientTransform="translate(0 190.79) scale(1 -1)" gradientUnits="userSpaceOnUse">
      <stop offset="0" stop-color="#0ba3b6"/>
      <stop offset=".09" stop-color="#387275"/>
      <stop offset=".28" stop-color="#845142"/>
      <stop offset=".48" stop-color="#dd2c07"/>
      <stop offset=".52" stop-color="#c9270f"/>
      <stop offset=".64" stop-color="#901928"/>
      <stop offset=".76" stop-color="#630e3c"/>
      <stop offset=".86" stop-color="#43064a"/>
      <stop offset=".94" stop-color="#300152"/>
      <stop offset="1" stop-color="#290056"/>
    </linearGradient>
  </defs>
  <path class="cls-4" d="M1009.02,371.45c0-74.74-49.83-117.24-137.76-117.24h-139.71v361.5h79.14v-126.52h61.06l54.22,126.52h86.47l-63.51-143.62c40.06-20.52,60.09-53.74,60.09-100.63ZM870.77,419.82h-60.09v-95.26h60.58c35.17,0,54.22,16.61,54.22,46.9s-20.03,48.36-54.71,48.36ZM1145.5,561c-33.22,0-51.29-15.14-55.69-47.39l177.33-.98v-19.05c0-79.63-47.87-129.94-124.57-129.94s-125.06,53.25-125.06,129.46,52.76,128.97,126.52,128.97c66.93,0,115.29-34.68,124.08-88.91h-68.88c-5.37,17.59-25.4,27.85-53.74,27.85ZM1143.06,424.7c30.29,0,49.34,16.61,49.34,42.5h-101.61c5.86-29.31,22.47-42.5,52.27-42.5ZM1412.99,247.37c10.26,0,21.98.98,33.71,2.93v64.48h-21.01c-30.78,0-37.61,16.12-37.61,37.13v19.54h58.62v62.53h-58.62v181.73h-75.23v-181.73h-33.71v-62.53h33.71v-19.54c0-72.79,38.1-104.54,100.15-104.54ZM1577.97,363.64c-69.86,0-115.29,36.15-115.29,91.35h62.53c0-21.98,17.1-34.2,48.85-34.2,26.87,0,41.52,12.7,41.52,36.64v3.91l-68.39,5.37c-58.62,4.4-90.38,32.24-90.38,77.19,0,47.87,32.24,78.16,84.02,78.16,36.64,0,68.88-16.12,76.7-38.59l4.89,32.24h66.44v-142.65c0-69.86-40.06-109.43-110.89-109.43ZM1616.07,524.36c0,27.85-20.03,42.01-48.85,42.01-22.96,0-33.71-8.3-33.71-25.89,0-15.63,11.72-22.96,44.45-25.89l38.1-3.42v13.19ZM1926.38,538.04c0,52.27-44.45,84.02-107.96,84.02s-105.03-34.2-105.03-83.54h71.32c.98,17.1,13.68,27.36,36.64,27.36s34.2-8.3,34.2-21.01c0-7.33-3.91-15.14-21.98-19.05l-44.94-9.77c-44.94-9.77-66.93-29.31-66.93-72.3,0-50.81,43.48-80.12,102.1-80.12s96.24,33.22,96.24,82.56h-71.32c0-16.61-10.26-27.85-28.33-27.85-17.1,0-27.84,8.79-27.84,21.98,0,11.24,9.28,17.59,26.38,21.49l45.43,9.77c40.06,8.79,62.04,27.36,62.04,66.44ZM2197.2,464.76v150.95h-75.23v-132.88c0-30.78-17.1-50.81-42.99-50.81-29.8,0-48.85,19.54-48.85,49.83v133.85h-75.23V247.37h75.72v149.48c15.14-21.01,42.99-33.22,74.74-33.22,58.13,0,91.84,37.13,91.84,101.12ZM2318.94,290.36c0,23.94-19.05,42.99-42.5,42.99s-42.99-19.05-42.99-42.99,19.05-42.5,42.99-42.5,42.5,18.56,42.5,42.5ZM2239.32,371.45h75.23v244.26h-75.23v-244.26ZM2480.17,364.13c-78.16,0-134.83,51.78-134.83,128.97s56.67,128.48,134.83,128.48,134.34-51.29,134.34-128.48-56.67-128.97-134.34-128.97ZM2480.17,554.16c-35.17,0-59.11-24.43-59.11-61.55s23.94-61.06,59.11-61.06,58.62,24.43,58.62,61.06-23.94,61.55-58.62,61.55ZM2887.61,464.76v150.95h-75.23v-132.88c0-30.78-17.1-50.81-42.99-50.81-29.8,0-48.85,19.54-48.85,49.83v133.85h-75.23v-244.26h70.83l4.88,25.4c15.14-21.01,42.99-33.22,74.74-33.22,58.13,0,91.84,37.13,91.84,101.12ZM3150.28,254.21l-128.97,361.5h82.56l25.89-76.21h116.75l25.4,76.21h84.02l-128.48-361.5h-77.19ZM3152.72,473.07l25.89-77.19c4.4-13.19,8.3-26.87,9.77-35.17,1.47,8.79,5.86,22.96,9.77,35.17l25.89,77.19h-71.32ZM3460.41,254.21v361.5h-79.14V254.21h79.14Z"/>
  <g>
    <path class="cls-1" d="M409.99,141.32l-.1-.2c-1.7-7.5-3.8-14.5-6.1-20.9-4.2-11.6-13.6-36.7-36.5-59.4-4.2-4.2-9.7-9.1-16.8-14.2-.01.02-.03.03-.04.05-.02-.02-.04-.03-.06-.05-28,33.8-53.2,58.1-69.8,73.3-43.6,39.8-115.1,94.9-160.9,136.5-8,7.2-24.1,23.5-38.7,48.3v.1c-2.6,4.5-5.9,10.4-9.2,17.4-.5,1-1,2.1-1.6,3.3-1.4,3.1-2.9,6.3-4.3,9.8-5.7,13.9-12.7,31.4-15,54.6-2,20.2.4,36.3,1.7,43.2.5,2.5,1,5,1.6,7.5,2,8.7,4.8,16.8,8.1,24.4,15.7,36.5,41.6,57.6,46,61.1,27.6,21.8,55.5,28.1,64.4,29.8,4.87.93,9.49,1.54,13.77,1.93,4.73.44,9.02.6,12.82.62,1.67,0,3.24-.01,4.71-.05l-.29-.35c-1.57-5.79-3.13-14.25-4.11-24.25-3.1-35.2,8.1-62.3,13.8-75.8,4.3-10.2,14.9-34.1,37.6-55.9,10.6-10.1,22-18.3,33.3-25.8,12.3-8.1,23-14.3,29.2-18.6.2-.1.6-.4.8-.5,21.5-15.9,63.8-51.8,85.8-109.7,2.6-6.8,4.6-13.4,4.6-13.4,6.9-21.6,13.7-54.9,5.3-92.8h0Z"/>
    <path class="cls-3" d="M440.39,395.52c2.9-4.5,11-16.9,7.8-30.2-1.1-4.4-3.1-7.7-4.6-9.8-1.9-2.6-3.8-4.2-5.3-5.5-3.7-3.2-7.1-4.9-9.3-6-2.4-1.2-5.4-2.8-9.8-3.8-1.9-.4-3.5-.7-4.6-.8.78.05,1.63.11,2.51.17-.88-.12-1.73-.22-2.51-.27-16.6-1.5-31.6.8-46.8,3.3-13.7,2.3-32.4,6.4-53.9,14.5h0c-7.2,4.5-18,10.9-31.4,16.1-23.2,9-43.6,11.1-56.5,11.5-5.7.2-22.7.4-44.1-4.3-31.7-7.1-52.6-20.5-57.1-23.4-10.3-6.8-23.6-15.8-34.4-32.7-4.9-7.6-7.8-14.6-9.6-19.5-4.2,7.1-9.7,17.5-15.1,30.6-5.7,13.9-12.7,31.4-15,54.6-2,20.2.4,36.3,1.7,43.2,10.3,56,50.2,88.5,55.7,92.9,27.6,21.8,55.5,28.1,64.4,29.8,12.6,2.4,23.5,2.7,31.3,2.5l17.1-1.2c5.6-.7,11.8-1.8,18.4-3.5,5.2-1.4,9.9-2.9,13.8-4.3l.56-.33c67.7-63.92,167.27-123.76,186.74-153.57h0Z"/>
    <path class="cls-2" d="M559.19,452.32c-6.5-35.1-33.3-63.4-36-66.3,0,0-18.1-18.8-44.8-31.6-3.9-1.9-10.6-5.2-20.1-8-9.2-2.8-16.8-3.9-24.3-5-6.62-1.01-12.37-1.52-16.89-1.83-.88-.06-1.73-.12-2.51-.17,1.1.1,2.7.4,4.6.8,4.4,1,7.4,2.6,9.8,3.8,2.2,1.1,5.6,2.8,9.3,6,1.5,1.3,3.4,2.9,5.3,5.5,1.5,2.1,3.5,5.4,4.6,9.8,3.2,13.3-4.9,25.7-7.8,30.2-19.47,29.81-119.04,89.65-186.74,153.57-4.97,4.69-9.77,9.41-14.36,14.13-17.1,17.6-29.2,33.4-38.2,53.9-20.4,46.3-13.1,89.2-11.2,99.1,12.4,64.2,59,99,69.8,106.6,32.9-36.8,62-64.8,83.4-84.4,54.4-49.6,125.2-104.3,125.2-104.3,0,0,54.4-44,75.7-86.6l-.1-.3c9.6-19.2,13.8-39.4,13.8-39.4,1.1-5.2,2.6-12.8,3.3-22.2.6-8.5.2-22.3-1.8-33.3h0Z"/>
  </g>
</svg>